#define 9989ce1d12294d20bba98dedf6c4ccf08ztfDBakqJbybehb_width 64
#define 9989ce1d12294d20bba98dedf6c4ccf08ztfDBakqJbybehb_height 64
static char 9989ce1d12294d20bba98dedf6c4ccf08ztfDBakqJbybehb_bits[] = {
  0x00, 0x00, 0x00, 0x00, 0x00, 0x00, 0x00, 0x00, 0x00, 0x00, 0x00, 0x00, 
  0x00, 0x00, 0x00, 0x00, 0x00, 0x00, 0x00, 0x00, 0x00, 0x00, 0x00, 0x00, 
  0x00, 0x00, 0x00, 0x00, 0x00, 0x00, 0x00, 0x00, 0x88, 0x45, 0x00, 0x00, 
  0x00, 0x60, 0x10, 0x00, 0x10, 0x40, 0x06, 0x00, 0x00, 0x00, 0x99, 0x05, 
  0xC8, 0x25, 0x04, 0x00, 0x00, 0x50, 0x00, 0x6A, 0x24, 0x91, 0x01, 0x00, 
  0x00, 0x10, 0x66, 0x08, 0x06, 0x00, 0x00, 0x00, 0x00, 0x00, 0x00, 0x30, 
  0x10, 0x00, 0x00, 0x00, 0x00, 0x00, 0x00, 0x08, 0x08, 0x00, 0x00, 0x00, 
  0x00, 0x00, 0x00, 0x20, 0x08, 0x00, 0x00, 0x00, 0x00, 0x00, 0x00, 0x10, 
  0x14, 0x00, 0x00, 0x00, 0x00, 0x00, 0x00, 0x00, 0x04, 0xFC, 0xFF, 0xFF, 
  0xFF, 0xFF, 0x3F, 0x28, 0x02, 0xFC, 0xFF, 0xFF, 0xFF, 0xFF, 0x3F, 0x00, 
  0x08, 0xFC, 0xFF, 0xFF, 0xFF, 0xFF, 0x3F, 0x30, 0x04, 0xFC, 0xFF, 0xFF, 
  0xFF, 0xFF, 0x3F, 0x40, 0x10, 0xFC, 0xFF, 0xFF, 0xFF, 0xFF, 0x3F, 0x18, 
  0x0C, 0xFC, 0xDF, 0xFF, 0xFF, 0xFF, 0x3F, 0x20, 0x00, 0xFC, 0x21, 0xFF, 
  0x3F, 0xFF, 0x3F, 0x00, 0x16, 0xFC, 0x00, 0xFF, 0x0F, 0xFE, 0x3F, 0x38, 
  0x00, 0xFC, 0xAA, 0xFE, 0x07, 0xF0, 0x3F, 0x00, 0x08, 0x7C, 0xA1, 0xFE, 
  0x03, 0xE0, 0x3F, 0x10, 0x00, 0x7C, 0x05, 0xFE, 0x03, 0xE0, 0x3F, 0x00, 
  0x00, 0x7C, 0x02, 0xFF, 0x03, 0xE0, 0x3F, 0x00, 0x00, 0xFC, 0x54, 0xFE, 
  0x0F, 0xF8, 0x3F, 0x00, 0x00, 0xFC, 0x81, 0xFF, 0xFF, 0xFF, 0x3F, 0x00, 
  0x00, 0xFC, 0x19, 0xFF, 0xFF, 0xFF, 0x3F, 0x00, 0x00, 0xFC, 0xD7, 0xFF, 
  0xFF, 0xFF, 0x3F, 0x00, 0x00, 0xFC, 0xFF, 0xFF, 0xFF, 0xFF, 0x3F, 0x00, 
  0x00, 0xFC, 0xFF, 0xFF, 0xFF, 0xFF, 0x3F, 0x00, 0x00, 0xFC, 0xFF, 0xFF, 
  0xFF, 0xFF, 0x3F, 0x00, 0x00, 0xFC, 0xFF, 0xFF, 0xFF, 0xFF, 0x3F, 0x00, 
  0x00, 0xFC, 0xFF, 0xFE, 0xFF, 0xF7, 0x3F, 0x00, 0x00, 0xFC, 0x7F, 0xFC, 
  0xFF, 0xE7, 0x3F, 0x00, 0x00, 0xFC, 0x7F, 0xFA, 0xFF, 0xE3, 0x3F, 0x00, 
  0x00, 0xFC, 0x3F, 0xF2, 0xFF, 0x89, 0x3F, 0x00, 0x00, 0xFC, 0x1F, 0xF8, 
  0xFF, 0xB6, 0x3F, 0x00, 0x00, 0xFC, 0x0F, 0xE0, 0x7F, 0x60, 0x3F, 0x00, 
  0x00, 0xFC, 0x97, 0xC4, 0xBF, 0x0D, 0x3E, 0x00, 0x00, 0xFC, 0x53, 0x80, 
  0xDF, 0x94, 0x3D, 0x00, 0x10, 0xFC, 0x0B, 0x99, 0x1F, 0x46, 0x3A, 0x08, 
  0x08, 0xFC, 0x92, 0x40, 0x6F, 0x60, 0x36, 0x00, 0x04, 0xFC, 0x00, 0x09, 
  0x16, 0x1B, 0x30, 0x30, 0x16, 0x7C, 0x09, 0x22, 0x88, 0x88, 0x2B, 0x08, 
  0x00, 0x3C, 0x60, 0x80, 0x68, 0x66, 0x10, 0x20, 0x08, 0xBC, 0x00, 0x26, 
  0x31, 0x23, 0x16, 0x60, 0x08, 0x1C, 0x25, 0x00, 0x84, 0x98, 0x04, 0x08, 
  0x14, 0x2C, 0x8A, 0xA4, 0x80, 0x12, 0x2B, 0x40, 0x04, 0x04, 0x00, 0x00, 
  0x45, 0xCC, 0x10, 0x18, 0x02, 0x40, 0x10, 0x04, 0x10, 0x11, 0x05, 0x20, 
  0x08, 0x00, 0x00, 0x00, 0x00, 0x00, 0x00, 0x00, 0x04, 0x00, 0x00, 0x00, 
  0x00, 0x00, 0x00, 0x30, 0x10, 0x00, 0x00, 0x00, 0x00, 0x00, 0x00, 0x00, 
  0x0C, 0x00, 0x00, 0x00, 0x00, 0x00, 0x00, 0x08, 0x20, 0x00, 0x00, 0x00, 
  0x00, 0x00, 0x00, 0x30, 0x66, 0x88, 0x01, 0x00, 0x00, 0x00, 0x66, 0x08, 
  0x00, 0x6A, 0x04, 0x00, 0x00, 0x60, 0x00, 0x2A, 0x98, 0x14, 0x02, 0x00, 
  0x00, 0x20, 0x99, 0x44, 0x08, 0x22, 0x02, 0x00, 0x00, 0x80, 0x08, 0x11, 
  0x00, 0x00, 0x00, 0x00, 0x00, 0x00, 0x00, 0x00, 0x00, 0x00, 0x00, 0x00, 
  0x00, 0x00, 0x00, 0x00, 0x00, 0x00, 0x00, 0x00, 0x00, 0x00, 0x00, 0x00, 
  0x00, 0x00, 0x00, 0x00, 0x00, 0x00, 0x00, 0x00, };
